<svg width="33" height="32" viewBox="0 0 33 32" fill="none" xmlns="http://www.w3.org/2000/svg">
<path d="M12.1 14.9334C10.6413 14.9334 9.24239 14.3715 8.21094 13.3713C7.17949 12.3711 6.60002 11.0145 6.60002 9.60003V5.33336C6.60002 5.05046 6.71592 4.77915 6.92221 4.57911C7.1285 4.37908 7.40829 4.2667 7.70002 4.2667H8.80002C9.09176 4.2667 9.37155 4.15431 9.57784 3.95428C9.78413 3.75424 9.90002 3.48293 9.90002 3.20003C9.90002 2.91713 9.78413 2.64582 9.57784 2.44578C9.37155 2.24574 9.09176 2.13336 8.80002 2.13336H7.70002C6.82481 2.13336 5.98544 2.4705 5.36657 3.07062C4.7477 3.67074 4.40002 4.48467 4.40002 5.33336V9.60003C4.40144 10.8051 4.70447 11.9918 5.2831 13.0582C5.86173 14.1247 6.69867 15.039 7.72202 15.7227C8.70524 16.5633 9.5026 17.5883 10.066 18.7359C10.6294 19.8836 10.9471 21.13 11 22.4C11 24.3803 11.8113 26.2795 13.2553 27.6798C14.6993 29.08 16.6579 29.8667 18.7 29.8667C20.7422 29.8667 22.7007 29.08 24.1447 27.6798C25.5888 26.2795 26.4 24.3803 26.4 22.4V21.184C27.4369 20.9244 28.3406 20.307 28.9417 19.4475C29.5427 18.588 29.7999 17.5454 29.665 16.5152C29.53 15.485 29.0122 14.5379 28.2087 13.8514C27.4051 13.1649 26.371 12.7862 25.3 12.7862C24.2291 12.7862 23.1949 13.1649 22.3914 13.8514C21.5878 14.5379 21.07 15.485 20.9351 16.5152C20.8001 17.5454 21.0573 18.588 21.6584 19.4475C22.2594 20.307 23.1631 20.9244 24.2 21.184V22.4C24.2 23.8145 23.6206 25.1711 22.5891 26.1713C21.5577 27.1715 20.1587 27.7334 18.7 27.7334C17.2413 27.7334 15.8424 27.1715 14.8109 26.1713C13.7795 25.1711 13.2 23.8145 13.2 22.4C13.2557 21.1285 13.5769 19.881 14.1441 18.7333C14.7113 17.5856 15.5128 16.5614 16.5 15.7227C17.5193 15.0367 18.352 14.1213 18.9267 13.055C19.5014 11.9887 19.8011 10.8032 19.8 9.60003V5.33336C19.8 4.48467 19.4523 3.67074 18.8335 3.07062C18.2146 2.4705 17.3752 2.13336 16.5 2.13336H15.4C15.1083 2.13336 14.8285 2.24574 14.6222 2.44578C14.4159 2.64582 14.3 2.91713 14.3 3.20003C14.3 3.48293 14.4159 3.75424 14.6222 3.95428C14.8285 4.15431 15.1083 4.2667 15.4 4.2667H16.5C16.7918 4.2667 17.0716 4.37908 17.2778 4.57911C17.4841 4.77915 17.6 5.05046 17.6 5.33336V9.60003C17.6 10.3004 17.4578 10.9939 17.1814 11.641C16.905 12.2881 16.4998 12.876 15.9891 13.3713C15.4784 13.8665 14.8721 14.2594 14.2048 14.5274C13.5375 14.7954 12.8223 14.9334 12.1 14.9334ZM25.3 19.2C24.7165 19.2 24.157 18.9753 23.7444 18.5752C23.3318 18.1751 23.1 17.6325 23.1 17.0667C23.1 16.5009 23.3318 15.9583 23.7444 15.5582C24.157 15.1581 24.7165 14.9334 25.3 14.9334C25.8835 14.9334 26.4431 15.1581 26.8557 15.5582C27.2682 15.9583 27.5 16.5009 27.5 17.0667C27.5 17.6325 27.2682 18.1751 26.8557 18.5752C26.4431 18.9753 25.8835 19.2 25.3 19.2Z" fill="black"/>
</svg>
