<svg width="32" height="32" viewBox="0 0 32 32" fill="none" xmlns="http://www.w3.org/2000/svg">
<path d="M16 28L14.0666 26.2667C11.8222 24.2444 9.96663 22.5 8.49996 21.0333C7.03329 19.5667 5.86663 18.2498 4.99996 17.0827C4.13329 15.9164 3.52796 14.8444 3.18396 13.8667C2.83996 12.8889 2.66751 11.8889 2.66663 10.8667C2.66663 8.77777 3.36663 7.03332 4.76663 5.63333C6.16663 4.23333 7.91107 3.53333 9.99996 3.53333C11.1555 3.53333 12.2555 3.77777 13.3 4.26666C14.3444 4.75555 15.2444 5.44444 16 6.33333C16.7555 5.44444 17.6555 4.75555 18.7 4.26666C19.7444 3.77777 20.8444 3.53333 22 3.53333C24.0888 3.53333 25.8333 4.23333 27.2333 5.63333C28.6333 7.03332 29.3333 8.77777 29.3333 10.8667C29.3333 11.8889 29.1608 12.8889 28.816 13.8667C28.4711 14.8444 27.8657 15.9164 27 17.0827C26.1333 18.2498 24.9666 19.5667 23.5 21.0333C22.0333 22.5 20.1777 24.2444 17.9333 26.2667L16 28ZM16 24.4C18.1333 22.4889 19.8888 20.8498 21.2666 19.4827C22.6444 18.1155 23.7333 16.9271 24.5333 15.9173C25.3333 14.9058 25.8888 14.0053 26.2 13.216C26.5111 12.4267 26.6666 11.6435 26.6666 10.8667C26.6666 9.53332 26.2222 8.42221 25.3333 7.53333C24.4444 6.64444 23.3333 6.19999 22 6.19999C20.9555 6.19999 19.9888 6.49421 19.1 7.08266C18.2111 7.6711 17.6 8.42133 17.2666 9.33333H14.7333C14.4 8.42221 13.7888 7.67199 12.9 7.08266C12.0111 6.49332 11.0444 6.1991 9.99996 6.19999C8.66663 6.19999 7.55551 6.64444 6.66663 7.53333C5.77774 8.42221 5.33329 9.53332 5.33329 10.8667C5.33329 11.6444 5.48885 12.428 5.79996 13.2173C6.11107 14.0067 6.66663 14.9067 7.46663 15.9173C8.26663 16.928 9.35551 18.1169 10.7333 19.484C12.1111 20.8511 13.8666 22.4898 16 24.4Z" fill="black"/>
</svg>
