<svg width="30" height="30" viewBox="0 0 30 30" fill="none" xmlns="http://www.w3.org/2000/svg">
<path d="M14.9375 22.5C15.375 22.5 15.745 22.3488 16.0475 22.0463C16.35 21.7438 16.5008 21.3742 16.5 20.9375C16.5 20.5 16.3492 20.13 16.0475 19.8275C15.7458 19.525 15.3758 19.3742 14.9375 19.375C14.5 19.375 14.1304 19.5263 13.8288 19.8288C13.5271 20.1313 13.3758 20.5008 13.375 20.9375C13.375 21.375 13.5263 21.745 13.8288 22.0475C14.1313 22.35 14.5008 22.5008 14.9375 22.5ZM15 27.5C13.2708 27.5 11.6458 27.1717 10.125 26.515C8.60417 25.8583 7.28125 24.9679 6.15625 23.8438C5.03125 22.7188 4.14083 21.3958 3.485 19.875C2.82917 18.3542 2.50083 16.7292 2.5 15C2.5 13.2708 2.82833 11.6458 3.485 10.125C4.14167 8.60417 5.03208 7.28125 6.15625 6.15625C7.28125 5.03125 8.60417 4.14083 10.125 3.485C11.6458 2.82917 13.2708 2.50083 15 2.5C16.7292 2.5 18.3542 2.82833 19.875 3.485C21.3958 4.14167 22.7188 5.03208 23.8438 6.15625C24.9688 7.28125 25.8596 8.60417 26.5163 10.125C27.1729 11.6458 27.5008 13.2708 27.5 15C27.5 16.7292 27.1717 18.3542 26.515 19.875C25.8583 21.3958 24.9679 22.7188 23.8438 23.8438C22.7188 24.9688 21.3958 25.8596 19.875 26.5163C18.3542 27.1729 16.7292 27.5008 15 27.5ZM15 25C17.7917 25 20.1563 24.0313 22.0938 22.0938C24.0313 20.1563 25 17.7917 25 15C25 12.2083 24.0313 9.84375 22.0938 7.90625C20.1563 5.96875 17.7917 5 15 5C12.2083 5 9.84375 5.96875 7.90625 7.90625C5.96875 9.84375 5 12.2083 5 15C5 17.7917 5.96875 20.1563 7.90625 22.0938C9.84375 24.0313 12.2083 25 15 25ZM15.125 9.625C15.6458 9.625 16.0992 9.79167 16.485 10.125C16.8708 10.4583 17.0633 10.875 17.0625 11.375C17.0625 11.8333 16.9221 12.2396 16.6413 12.5938C16.3604 12.9479 16.0425 13.2813 15.6875 13.5938C15.2083 14.0104 14.7867 14.4688 14.4225 14.9688C14.0583 15.4688 13.8758 16.0313 13.875 16.6563C13.875 16.9479 13.9846 17.1929 14.2038 17.3913C14.4229 17.5896 14.6779 17.6883 14.9688 17.6875C15.2813 17.6875 15.5471 17.5833 15.7663 17.375C15.9854 17.1667 16.1258 16.9063 16.1875 16.5938C16.2708 16.1563 16.4583 15.7654 16.75 15.4213C17.0417 15.0771 17.3542 14.7492 17.6875 14.4375C18.1667 13.9792 18.5783 13.4792 18.9225 12.9375C19.2667 12.3958 19.4383 11.7917 19.4375 11.125C19.4375 10.0625 19.005 9.19292 18.14 8.51625C17.275 7.83958 16.27 7.50083 15.125 7.5C14.3333 7.5 13.5783 7.66667 12.86 8C12.1417 8.33333 11.5946 8.84375 11.2188 9.53125C11.0729 9.78125 11.0258 10.0471 11.0775 10.3288C11.1292 10.6104 11.27 10.8238 11.5 10.9688C11.7917 11.1354 12.0938 11.1875 12.4063 11.125C12.7188 11.0625 12.9792 10.8854 13.1875 10.5938C13.4167 10.2813 13.7033 10.0417 14.0475 9.875C14.3917 9.70833 14.7508 9.625 15.125 9.625Z" fill="#2F5146"/>
</svg>
