<svg width="23" height="27" viewBox="0 0 23 27" fill="none" xmlns="http://www.w3.org/2000/svg">
<path d="M20.25 19.25V12.75C19.625 12.875 19 13 18.375 13H17.75V20.5H5.25V11.75C5.25 8.25 8 5.5 11.5 5.5C11.625 3.875 12.375 2.5 13.375 1.375C13 0.875 12.25 0.5 11.5 0.5C10.125 0.5 9 1.625 9 3V3.375C5.25 4.5 2.75 7.875 2.75 11.75V19.25L0.25 21.75V23H22.75V21.75L20.25 19.25ZM9 24.25C9 25.625 10.125 26.75 11.5 26.75C12.875 26.75 14 25.625 14 24.25H9ZM22.75 6.125C22.75 8.5 20.75 10.5 18.375 10.5C16 10.5 14 8.5 14 6.125C14 3.75 16 1.75 18.375 1.75C20.75 1.75 22.75 3.75 22.75 6.125Z" fill="#8A8A8A"/>
</svg>
