<svg width="31" height="30" viewBox="0 0 31 30" fill="none" xmlns="http://www.w3.org/2000/svg">
<path fill-rule="evenodd" clip-rule="evenodd" d="M21 11C21 12.4144 20.4205 13.771 19.3891 14.7712C18.3576 15.7714 16.9587 16.3333 15.5 16.3333C14.0413 16.3333 12.6424 15.7714 11.6109 14.7712C10.5795 13.771 10 12.4144 10 11C10 9.58547 10.5795 8.22892 11.6109 7.22872C12.6424 6.22853 14.0413 5.66663 15.5 5.66663C16.9587 5.66663 18.3576 6.22853 19.3891 7.22872C20.4205 8.22892 21 9.58547 21 11ZM18.25 11C18.25 11.7072 17.9603 12.3855 17.4445 12.8856C16.9288 13.3857 16.2293 13.6666 15.5 13.6666C14.7707 13.6666 14.0712 13.3857 13.5555 12.8856C13.0397 12.3855 12.75 11.7072 12.75 11C12.75 10.2927 13.0397 9.61444 13.5555 9.11434C14.0712 8.61424 14.7707 8.33329 15.5 8.33329C16.2293 8.33329 16.9288 8.61424 17.4445 9.11434C17.9603 9.61444 18.25 10.2927 18.25 11Z" fill="black"/>
<path fill-rule="evenodd" clip-rule="evenodd" d="M15.5 0.333313C7.14688 0.333313 0.375 6.89998 0.375 15C0.375 23.1 7.14688 29.6666 15.5 29.6666C23.8531 29.6666 30.625 23.1 30.625 15C30.625 6.89998 23.8531 0.333313 15.5 0.333313ZM3.125 15C3.125 17.7866 4.10537 20.352 5.7485 22.3893C6.90244 20.9198 8.39111 19.729 10.0982 18.9097C11.8053 18.0905 13.6846 17.665 15.5894 17.6666C17.4695 17.6649 19.3251 18.0793 21.015 18.8784C22.7049 19.6774 24.1845 20.8399 25.3409 22.2773C26.5322 20.7621 27.3344 18.9936 27.681 17.1181C28.0276 15.2426 27.9086 13.314 27.3339 11.492C26.7593 9.66989 25.7454 8.00671 24.3763 6.64003C23.0072 5.27335 21.3221 4.24246 19.4605 3.63266C17.599 3.02286 15.6144 2.85168 13.6711 3.13328C11.7277 3.41488 9.88146 4.14117 8.28506 5.25205C6.68865 6.36293 5.38799 7.82647 4.49069 9.52157C3.59339 11.2167 3.12525 13.0946 3.125 15ZM15.5 27C12.6592 27.0041 9.90412 26.0564 7.701 24.3173C8.58778 23.0863 9.76809 22.0812 11.1415 21.3876C12.5149 20.6939 14.0408 20.3322 15.5894 20.3333C17.1186 20.3321 18.626 20.6847 19.9865 21.3619C21.347 22.039 22.5213 23.0211 23.4117 24.2266C21.1915 26.0223 18.3911 27.0039 15.5 27Z" fill="black"/>
</svg>
