<svg width="32" height="28" viewBox="0 0 32 28" fill="none" xmlns="http://www.w3.org/2000/svg">
<path d="M27.3333 0.666687H13.1666C12.0395 0.666687 10.9585 1.08811 10.1614 1.83826C9.36439 2.58841 8.91663 3.60582 8.91663 4.66669V14C8.91663 15.0609 9.36439 16.0783 10.1614 16.8284C10.9585 17.5786 12.0395 18 13.1666 18H27.3333C28.4605 18 29.5415 17.5786 30.3385 16.8284C31.1355 16.0783 31.5833 15.0609 31.5833 14V4.66669C31.5833 3.60582 31.1355 2.58841 30.3385 1.83826C29.5415 1.08811 28.4605 0.666687 27.3333 0.666687ZM28.75 14C28.75 14.3536 28.6007 14.6928 28.335 14.9428C28.0694 15.1929 27.709 15.3334 27.3333 15.3334H13.1666C12.7909 15.3334 12.4306 15.1929 12.1649 14.9428C11.8992 14.6928 11.75 14.3536 11.75 14V4.66669C11.75 4.31306 11.8992 3.97393 12.1649 3.72388C12.4306 3.47383 12.7909 3.33335 13.1666 3.33335H27.3333C27.709 3.33335 28.0694 3.47383 28.335 3.72388C28.6007 3.97393 28.75 4.31306 28.75 4.66669V14ZM23.7916 8.66669C23.2672 8.66836 22.7621 8.85373 22.375 9.18669C22.0703 8.92609 21.6918 8.75438 21.2855 8.69242C20.8791 8.63047 20.4624 8.68094 20.0859 8.83769C19.7094 8.99445 19.3895 9.25075 19.1649 9.57544C18.9402 9.90014 18.8207 10.2792 18.8207 10.6667C18.8207 11.0541 18.9402 11.4332 19.1649 11.7579C19.3895 12.0826 19.7094 12.3389 20.0859 12.4957C20.4624 12.6524 20.8791 12.7029 21.2855 12.641C21.6918 12.579 22.0703 12.4073 22.375 12.1467C22.6308 12.3655 22.9395 12.5223 23.2743 12.6035C23.609 12.6846 23.9598 12.6876 24.2961 12.6123C24.6324 12.537 24.9441 12.3856 25.2042 12.1712C25.4643 11.9569 25.6649 11.686 25.7885 11.3822C25.9122 11.0784 25.9553 10.7507 25.914 10.4277C25.8727 10.1047 25.7483 9.79599 25.5515 9.52845C25.3548 9.26091 25.0917 9.04258 24.785 8.89241C24.4783 8.74224 24.1373 8.66476 23.7916 8.66669ZM21.6666 20.6667C21.2909 20.6667 20.9306 20.8072 20.6649 21.0572C20.3992 21.3073 20.25 21.6464 20.25 22V23.3334C20.25 23.687 20.1007 24.0261 19.835 24.2762C19.5694 24.5262 19.209 24.6667 18.8333 24.6667H4.66663C4.2909 24.6667 3.93057 24.5262 3.66489 24.2762C3.39921 24.0261 3.24996 23.687 3.24996 23.3334V18H4.66663C5.04235 18 5.40268 17.8595 5.66836 17.6095C5.93404 17.3594 6.08329 17.0203 6.08329 16.6667C6.08329 16.3131 5.93404 15.9739 5.66836 15.7239C5.40268 15.4738 5.04235 15.3334 4.66663 15.3334H3.24996V14C3.24996 13.6464 3.39921 13.3073 3.66489 13.0572C3.93057 12.8072 4.2909 12.6667 4.66663 12.6667C5.04235 12.6667 5.40268 12.5262 5.66836 12.2762C5.93404 12.0261 6.08329 11.687 6.08329 11.3334C6.08329 10.9797 5.93404 10.6406 5.66836 10.3905C5.40268 10.1405 5.04235 10 4.66663 10C3.53946 10 2.45845 10.4214 1.66142 11.1716C0.864393 11.9217 0.416626 12.9392 0.416626 14V23.3334C0.416626 24.3942 0.864393 25.4116 1.66142 26.1618C2.45845 26.9119 3.53946 27.3334 4.66663 27.3334H18.8333C19.9605 27.3334 21.0415 26.9119 21.8385 26.1618C22.6355 25.4116 23.0833 24.3942 23.0833 23.3334V22C23.0833 21.6464 22.934 21.3073 22.6684 21.0572C22.4027 20.8072 22.0424 20.6667 21.6666 20.6667ZM7.49996 22H8.91663C9.29235 22 9.65268 21.8595 9.91836 21.6095C10.184 21.3594 10.3333 21.0203 10.3333 20.6667C10.3333 20.3131 10.184 19.9739 9.91836 19.7239C9.65268 19.4738 9.29235 19.3334 8.91663 19.3334H7.49996C7.12424 19.3334 6.7639 19.4738 6.49823 19.7239C6.23255 19.9739 6.08329 20.3131 6.08329 20.6667C6.08329 21.0203 6.23255 21.3594 6.49823 21.6095C6.7639 21.8595 7.12424 22 7.49996 22Z" fill="black"/>
</svg>
