<svg width="48" height="48" viewBox="0 0 48 48" fill="none" xmlns="http://www.w3.org/2000/svg">
<path d="M29.112 31.096L28.202 32.056C28.202 32.056 26.036 34.334 20.126 28.112C14.216 21.89 16.382 19.612 16.382 19.612L16.956 19.006C18.368 17.518 18.502 15.13 17.268 13.386L14.748 9.82004C13.22 7.66004 10.27 7.37604 8.51996 9.21804L5.38196 12.52C4.51596 13.434 3.93596 14.616 4.00596 15.93C4.18596 19.29 5.62196 26.516 13.63 34.95C22.124 43.89 30.094 44.246 33.352 43.924C34.384 43.824 35.28 43.266 36.002 42.506L38.842 39.514C40.762 37.494 40.222 34.034 37.766 32.622L33.946 30.422C32.334 29.496 30.372 29.768 29.112 31.094V31.096Z" fill="black"/>
<path d="M34 24C36.1746 23.9996 38.2899 23.2904 40.0252 21.9797C41.7605 20.6691 43.0213 18.8285 43.6165 16.7369C44.2117 14.6452 44.1088 12.4166 43.3235 10.3887C42.5381 8.36081 41.1131 6.64419 39.2645 5.49898C37.4158 4.35377 35.2442 3.84241 33.0787 4.04238C30.9133 4.24236 28.8721 5.14277 27.2644 6.60717C25.6567 8.07157 24.5702 10.0201 24.1695 12.1576C23.7688 14.295 24.0758 16.5048 25.044 18.452C25.227 18.8056 25.2747 19.2138 25.178 19.6L24.582 21.826C24.523 22.0464 24.523 22.2784 24.5821 22.4988C24.6412 22.7192 24.7572 22.9202 24.9185 23.0815C25.0798 23.2428 25.2808 23.3588 25.5012 23.4179C25.7216 23.477 25.9536 23.477 26.174 23.418L28.4 22.822C28.7862 22.7253 29.1944 22.773 29.548 22.956C30.9309 23.6446 32.4551 24.002 34 24Z" fill="black"/>
</svg>
